<?xml version="1.0" encoding="utf-8"?>
<!-- Generator: Adobe Illustrator 21.0.0, SVG Export Plug-In . SVG Version: 6.00 Build 0)  -->
<svg version="1.1" id="Layer_1" xmlns="http://www.w3.org/2000/svg" xmlns:xlink="http://www.w3.org/1999/xlink" x="0px" y="0px"
	 viewBox="0 0 1000 200" style="enable-background:new 0 0 1000 200;" xml:space="preserve">
<style type="text/css">
	.st0{clip-path:url(#SVGID_2_);fill:#006AB4;}
	.st1{stroke:#006AB4;stroke-width:3;stroke-miterlimit:10;}
	.st2{fill:#006AB4;}
	.st3{font-family:'ArialMT';}
	.st4{font-size:90px;}
</style>
<g>
	<defs>
		<rect id="SVGID_1_" x="32" y="42.1" width="423" height="101.6"/>
	</defs>
	<clipPath id="SVGID_2_">
		<use xlink:href="#SVGID_1_"  style="overflow:visible;"/>
	</clipPath>
	<path class="st0" d="M93.8,110.9c1.2,0,1-0.7,1-2v-6.2c0-1.3-0.1-1.7,0.6-1.7c2.5,0,3.2-0.2,3.2-2.5v-23c0-6.3-4.4-5.2-5.7-7.5
		c-1.8-3.1,3.3-3.1,1.5-9.8c-0.5-1.5-1.7-2.5-3.9-2.5c-2.3,0-3.5,0.9-4,2.5c-1.8,6.7,3.2,6.7,1.5,9.8c-1.3,2.3-5.7,1.2-5.7,7.5v23
		c0,2.3,0.7,2.5,3.2,2.5c0.7,0,0.6,0.4,0.6,1.7v6.2c0,1.3-0.2,2,1.1,2H93.8z"/>
	<path class="st0" d="M73.7,61.1c-2.3,2.4-5.8,8-3.5,12.7c4.7,1.8,4.4-15,10.3-14.7c2.9,2.7-0.9,10.6-2,14.1
		c-1.5,4.3-2.6,13.3-5.4,17.7c-2.3,3.6-0.6,15.1-1.3,19c-2,2-7.3,0.6-9.5,0.2c0-4.5-0.6-8.1-1.3-15.3c-0.1-1.5-1.6-23.8-0.4-26.5
		C63.1,62.8,77,52.1,78.9,50c1.7-1.8,7.6-7.9,9.8-7.9c1.6,1.1,0.7,3.6,0.3,4.7C86.8,52.4,77,58,73.7,61.1"/>
	<path class="st0" d="M107.7,61.1c2.2,2.4,5.8,8,3.5,12.7c-4.8,1.8-4.4-15-10.3-14.7c-2.8,2.7,0.9,10.6,2.1,14.1
		c1.5,4.3,2.6,13.3,5.4,17.7c2.3,3.6,0.6,15.1,1.2,19c2,2,7.3,0.6,9.6,0.2c0-4.5,0.5-8.1,1.2-15.3c0.1-1.5,1.7-23.8,0.4-26.5
		c-2.5-5.6-16.5-16.3-18.4-18.4c-1.7-1.8-7.6-7.9-9.8-7.9c-1.7,1.1-0.6,3.6-0.3,4.7C94.6,52.4,104.4,58,107.7,61.1"/>
	<path class="st0" d="M53.5,53.5c-1.2,1.2-4,2-5.9,4.5c-0.7-1.4,1.2-4.7,3.4-6.7c1.7-1.4,5-3.7,5.9-3.9C57.6,49.2,55,51.7,53.5,53.5
		"/>
	<path class="st0" d="M49.6,62.7c-2.1,2-4.4,2.8-7.3,6.4c-1.2-4.3-0.9-8.1-0.4-10.7c1-3.4,2.7-7.1,5.6-8.2c-0.6,1.9-1.5,4.5-1.8,8.1
		c-1.2,4.9-2,5-1.7,5.7c0.3,0,1.9-2.6,3.9-4.5c2.3-2.3,5.3-2.8,7.1-4.2C54.8,56.1,53.1,59.1,49.6,62.7"/>
	<path class="st0" d="M39.3,82.9c-2.8-5.1-3.1-8.8-3.4-13.2c0.1-3,1.6-9.9,3.8-10.9c-0.7,6.3,1,6.9,0.4,12c0,0.3-0.7,5.7-0.7,6
		c0.9-0.1,0.1-5,10.1-11.9c-2.2,3.8-1.2,5-5.1,10C39.8,79.5,39.1,83.9,39.3,82.9"/>
	<path class="st0" d="M43.3,87.7c-2.1,3.1-1.8,4.6-2.3,6.1c-5-2.9-10.7-14.5-8.6-20.3c1.3,4.4,3.1,5.3,4.5,9
		c2.3,5.5,1.9,7.2,3.4,8.4c-0.3-2.8,0.7-6.2,1.6-8.7c1.4-2.1,2.5-4.9,3.5-5.8C46.5,80.3,45.7,83.6,43.3,87.7"/>
	<path class="st0" d="M47.9,97.6c0,4.5-0.8,6.4-1.2,9.7c-8.7-2.8-13.2-12.8-13.2-17.7c2.6,6,6.5,5.9,11.5,14.4
		c0.4-3.2-0.9-0.8-1-6.9c0.1-6.4,1.5-6.6,1.7-10.5C47.3,88.4,47.9,95.5,47.9,97.6"/>
	<path class="st0" d="M55.1,110.3c0.7,3.3,0.9,7.2,1.5,10c-5-1.8-6.2-0.4-12.1-4.2c-2.7-1.5-7.5-7.6-7.2-12c5.8,6.5,6.9,5.8,9.7,8.2
		c2.6,2.1,4.7,5.3,6.7,4.8c0.1-1.8-4.3-5.6-3.7-16.5C51,101.9,54.2,106.8,55.1,110.3"/>
	<path class="st0" d="M64.9,118.4c1.5,2.2,1.2,3.1,5.1,7.7c-1,0.4-6.6,1.9-10.3,2.1c-2.5,0-11.2-2.3-14.2-8.3c5,2.7,5.1,2,11.8,3.5
		c4.8,1.1,8.3,2.6,9.6,2.5c-0.3-0.7-4-2.2-6.6-5.4c-2.6-3.4-2-7.3-4.2-10.1C57.7,109.8,63.7,116.8,64.9,118.4"/>
	<path class="st0" d="M127.5,53.5c1.2,1.2,4,2,5.8,4.5c0.8-1.4-1.2-4.7-3.4-6.7c-1.6-1.4-4.9-3.7-5.9-3.9
		C123.3,49.2,125.9,51.7,127.5,53.5"/>
	<path class="st0" d="M131.4,62.7c2,2,4.3,2.8,7.2,6.4c1.2-4.3,0.9-8.1,0.4-10.7c-0.9-3.4-2.7-7.1-5.6-8.2c0.7,1.9,1.5,4.5,1.8,8.1
		c1.2,4.9,2,5,1.7,5.7c-0.3,0-1.9-2.6-3.9-4.5c-2.3-2.3-5.2-2.8-7.1-4.2C126.1,56.1,127.9,59.1,131.4,62.7"/>
	<path class="st0" d="M141.6,82.9c2.9-5.1,3.1-8.8,3.4-13.2c-0.2-3-1.6-9.9-3.7-10.9c0.6,6.3-1.1,6.9-0.4,12c0,0.3,0.7,5.7,0.7,6
		c-0.8-0.1-0.1-5-10-11.9c2.1,3.8,1.1,5,5,10C141.2,79.5,141.8,83.9,141.6,82.9"/>
	<path class="st0" d="M137.7,87.7c2.1,3.1,1.7,4.6,2.2,6.1c5-2.9,10.8-14.5,8.6-20.3c-1.2,4.4-3.1,5.3-4.4,9c-2.3,5.5-2,7.2-3.4,8.4
		c0.3-2.8-0.7-6.2-1.7-8.7c-1.3-2.1-2.5-4.9-3.5-5.8C134.5,80.3,135.2,83.6,137.7,87.7"/>
	<path class="st0" d="M133.1,97.6c0,4.5,0.9,6.4,1.2,9.7c8.6-2.8,13.2-12.8,13.2-17.7c-2.7,6-6.5,5.9-11.6,14.4
		c-0.4-3.2,0.9-0.8,1-6.9c-0.1-6.4-1.5-6.6-1.7-10.5C133.7,88.4,133.1,95.5,133.1,97.6"/>
	<path class="st0" d="M125.8,110.3c-0.7,3.3-0.9,7.2-1.4,10c4.9-1.8,6.1-0.4,12-4.2c2.7-1.5,7.6-7.6,7.3-12
		c-5.8,6.5-6.9,5.8-9.7,8.2c-2.6,2.1-4.8,5.3-6.7,4.8c-0.1-1.8,4.3-5.6,3.8-16.5C129.9,101.9,126.7,106.8,125.8,110.3"/>
	<path class="st0" d="M116,118.4c-1.5,2.2-1.1,3.1-5.1,7.7c1,0.4,6.6,1.9,10.4,2.1c2.4,0,11.2-2.3,14.1-8.3c-5,2.7-5.1,2-11.8,3.5
		c-4.8,1.1-8.2,2.6-9.6,2.5c0.3-0.7,4.1-2.2,6.6-5.4c2.5-3.4,2-7.3,4.3-10.1C123.2,109.8,117.2,116.8,116,118.4"/>
	<path class="st0" d="M78,139l-1.5-0.7c0,0,9.3-11.3,25.2-10.4c15.9,0.9,14.8,4.6,23.4,4c1-0.1-0.7,1.2-0.7,1.2s-8.3,3.2-18.6-0.3
		C95.5,129.2,88.9,127.1,78,139"/>
	<path class="st0" d="M103.2,139l1.5-0.7c0,0-9.2-11.3-25.1-10.4c-16,0.9-14.9,4.6-23.4,4c-1-0.1,0.7,1.2,0.7,1.2s8.3,3.2,18.6-0.3
		C85.7,129.2,92.4,127.1,103.2,139"/>
	<path class="st0" d="M216,89.8c0,15.3-8.2,22.6-25,22.6c-16.8,0-25.1-7.3-25.1-22.6V56.1h16.9v30c0,5.6,0,12.6,8.2,12.6
		c8,0,8-7,8-12.6v-30H216V89.8z"/>
	<polygon class="st0" points="226.2,56.1 243.5,56.1 259.6,85.5 259.7,85.5 259.7,56.1 275.7,56.1 275.7,111.1 259.2,111.1 
		242.4,81 242.2,81 242.2,111.1 226.2,111.1 	"/>
	<polygon class="st0" points="286.1,56.1 303.1,56.1 303.1,75.2 319,75.2 319,56.1 335.9,56.1 335.9,111.1 319,111.1 319,89.3 
		303.1,89.3 303.1,111.1 286.1,111.1 	"/>
	<path class="st0" d="M379.3,76.5c-0.3-2-1.8-8.1-8.9-8.1c-7.9,0-10.5,7.7-10.5,15.1c0,7.4,2.5,15.1,10.5,15.1c5.7,0,7.9-4,8.9-9.2
		H396c0,11.1-9,22.9-25.1,22.9c-17.8,0-27.9-12.6-27.9-28.8c0-17.3,10.9-28.8,27.9-28.8c15.1,0.1,23.4,8,24.9,21.8H379.3z"/>
	<path class="st0" d="M403.1,111.1H420V91.9h9c6.7,0,7.2,5.5,7.6,10.7c0.2,2.9,0.5,5.7,1.4,8.5h17c-1.5-2.5-1.6-9.1-1.9-11.8
		c-0.6-6.9-3.5-11.9-8.1-13.7c5.6-2.1,8.2-8.1,8.2-13.8c0-10.4-8.3-15.7-17.9-15.7h-32.3V111.1z M420,69.2h7.9c6.5,0,8.4,2,8.4,5.5
		c0,4.9-4.3,5.5-7.5,5.5H420V69.2z"/>
	<polygon class="st0" points="171.4,123.7 165.9,123.7 165.9,120.3 181,120.3 181,123.7 175.4,123.7 175.4,138.7 171.4,138.7 	"/>
	<path class="st0" d="M182.2,120.3h3.7v6.9h0.1c0.9-1.5,2.5-2.2,3.9-2.2c3.9,0,4.9,2.2,4.9,5.5v8.2h-3.7v-7.5c0-2.2-0.6-3.3-2.3-3.3
		c-2,0-2.8,1.1-2.8,3.8v7h-3.7V120.3z"/>
	<path class="st0" d="M206,130.6c-0.3-1.9-1.1-2.8-2.9-2.8c-2.3,0-3,1.8-3,2.8H206z M200,132.9c0.1,2.3,1.2,3.4,3.3,3.4
		c1.5,0,2.7-0.9,2.9-1.7h3.2c-1,3.2-3.2,4.5-6.2,4.5c-4.2,0-6.8-2.9-6.8-7c0-4,2.8-7,6.8-7c4.5,0,6.7,3.8,6.5,7.9H200z"/>
	<path class="st0" d="M233.4,131.8c0,5-2.9,7.4-7.9,7.4c-5,0-7.8-2.4-7.8-7.4v-11.5h4.1v11.5c0,2,0.5,4,3.8,4c2.9,0,3.8-1.3,3.8-4
		v-11.5h4.1V131.8z"/>
	<polygon class="st0" points="236.1,120.3 240.2,120.3 247.9,132.7 247.9,132.7 247.9,120.3 251.7,120.3 251.7,138.7 247.6,138.7 
		240,126.4 239.9,126.4 239.9,138.7 236.1,138.7 	"/>
	<path class="st0" d="M260.5,138.7h4.1v-7.2h4c2,0,2.8,0.9,3.1,2.8c0.2,1.5,0.2,3.3,0.6,4.4h4.1c-0.7-1-0.7-3.2-0.8-4.4
		c-0.1-1.9-0.7-3.8-2.7-4.3V130c2-0.8,2.9-2.5,2.9-4.6c0-2.8-2.1-5.1-5.4-5.1h-9.9V138.7z M264.6,123.4h4.4c1.8,0,2.8,0.8,2.8,2.6
		c0,1.9-1,2.6-2.8,2.6h-4.4V123.4z"/>
	<path class="st0" d="M291,132.9c0.3-4.1-1.9-7.9-6.5-7.9c-4.1,0-6.8,3-6.8,7c0,4.1,2.6,7,6.8,7c3,0,5.2-1.3,6.2-4.5h-3.2
		c-0.2,0.8-1.4,1.7-2.9,1.7c-2,0-3.2-1.1-3.3-3.4H291z M281.3,130.6c0.1-1,0.7-2.8,3-2.8c1.8,0,2.6,1,2.9,2.8H281.3z"/>
	<path class="st0" d="M293.4,127.8h-2.2v-2.5h2.2v-1c0-2.3,1.5-4.1,4.5-4.1c0.6,0,1.3,0.1,1.9,0.1v2.7c-0.4-0.1-0.9-0.1-1.3-0.1
		c-1,0-1.4,0.4-1.4,1.5v0.8h2.5v2.5H297v10.9h-3.7V127.8z"/>
	<path class="st0" d="M313.2,138.7h-3.5v-1.9h-0.1c-0.9,1.5-2.5,2.2-4.1,2.2c-3.9,0-4.9-2.2-4.9-5.5v-8.2h3.7v7.5
		c0,2.2,0.6,3.3,2.4,3.3c2,0,2.8-1.1,2.8-3.8v-7h3.7V138.7z"/>
	<path class="st0" d="M328.3,125.4h-3.5v1.8h-0.1c-0.9-1.6-2.2-2.1-4-2.1c-3.7,0-5.7,3.1-5.7,6.6c0,3.7,1.7,6.7,5.7,6.7
		c1.6,0,3.2-0.7,4-2.1h0.1v1.8c0,1.9-0.9,3.3-2.9,3.3c-1.3,0-2.4-0.5-2.7-1.8h-3.6c0.2,3,3.3,4.3,5.9,4.3c6.1,0,6.9-3.7,6.9-5.9
		V125.4z M321.7,135.6c-2.2,0-3-2.1-3-4c0-2,0.9-3.8,3-3.8c2.4,0,3.1,1.9,3.1,4.1C324.8,133.8,323.8,135.6,321.7,135.6"/>
	<path class="st0" d="M343.4,132.9c0.3-4.1-1.9-7.9-6.5-7.9c-4.1,0-6.8,3-6.8,7c0,4.1,2.6,7,6.8,7c3,0,5.2-1.3,6.2-4.5h-3.2
		c-0.2,0.8-1.4,1.7-2.9,1.7c-2,0-3.2-1.1-3.3-3.4H343.4z M333.8,130.6c0.1-1,0.7-2.8,3-2.8c1.8,0,2.6,1,2.9,2.8H333.8z"/>
	<path class="st0" d="M357.7,132.9c0.3-4.1-1.9-7.9-6.5-7.9c-4.1,0-6.8,3-6.8,7c0,4.1,2.6,7,6.8,7c3,0,5.2-1.3,6.2-4.5h-3.2
		c-0.2,0.8-1.4,1.7-2.9,1.7c-2,0-3.2-1.1-3.3-3.4H357.7z M348.1,130.6c0.1-1,0.7-2.8,3-2.8c1.8,0,2.6,1,2.9,2.8H348.1z"/>
	<path class="st0" d="M365.5,138.7h4.1l1.4-4.1h6.9l1.4,4.1h4.2l-6.9-18.4h-4.2L365.5,138.7z M374.5,124.8L374.5,124.8l2.4,6.8h-4.8
		L374.5,124.8z"/>
	<path class="st0" d="M397,125.4h-3.5v1.8h-0.1c-0.9-1.6-2.2-2.1-4-2.1c-3.7,0-5.7,3.1-5.7,6.6c0,3.7,1.7,6.7,5.7,6.7
		c1.6,0,3.2-0.7,4-2.1h0.1v1.8c0,1.9-0.9,3.3-2.9,3.3c-1.3,0-2.4-0.5-2.7-1.8h-3.6c0.2,3,3.3,4.3,5.9,4.3c6.1,0,6.9-3.7,6.9-5.9
		V125.4z M390.4,135.6c-2.2,0-3-2.1-3-4c0-2,0.9-3.8,3-3.8c2.4,0,3.1,1.9,3.1,4.1C393.5,133.8,392.5,135.6,390.4,135.6"/>
	<path class="st0" d="M412.2,132.9c0.3-4.1-1.9-7.9-6.5-7.9c-4.1,0-6.8,3-6.8,7c0,4.1,2.6,7,6.8,7c3,0,5.2-1.3,6.2-4.5h-3.2
		c-0.2,0.8-1.4,1.7-2.9,1.7c-2,0-3.2-1.1-3.3-3.4H412.2z M402.5,130.6c0.1-1,0.7-2.8,3-2.8c1.8,0,2.6,1,2.9,2.8H402.5z"/>
	<path class="st0" d="M413.8,125.4h3.5v1.9h0.1c0.9-1.5,2.5-2.2,4.1-2.2c3.9,0,4.9,2.2,4.9,5.5v8.2h-3.7v-7.5c0-2.2-0.6-3.3-2.3-3.3
		c-2,0-2.8,1.1-2.8,3.8v7h-3.7V125.4z"/>
	<path class="st0" d="M437.6,130.1c-0.2-1.5-1.2-2.3-2.7-2.3c-2.3,0-3.1,2.4-3.1,4.3c0,1.9,0.7,4.2,3,4.2c1.7,0,2.7-1.1,2.9-2.7h3.5
		c-0.5,3.5-2.9,5.5-6.4,5.5c-4,0-6.7-2.8-6.7-6.8c0-4.2,2.5-7.2,6.8-7.2c3.1,0,6,1.6,6.3,5.1H437.6z"/>
	<path class="st0" d="M449.4,140.4c-0.8,2.1-2.1,3-4.6,3c-0.7,0-1.5-0.1-2.2-0.1v-3c0.7,0.1,1.4,0.2,2.1,0.1
		c1.3-0.1,1.7-1.4,1.3-2.5l-4.7-12.5h3.9l3,9.1h0.1l2.9-9.1h3.8L449.4,140.4z"/>
</g>
<line class="st1" x1="478" y1="42.1" x2="478" y2="160.7"/>
<text transform="matrix(1 0 0 1 496 125)" class="st2 st3 st4">Somalia</text>
</svg>
